<svg xmlns="http://www.w3.org/2000/svg" viewBox="0 0 920 654">
    <defs></defs>
    <g id="Artboard" fill="none" fill-rule="evenodd">
        <g id="Table-1" transform="translate(70 104)">
            <g id="Group" transform="rotate(90 85 85.5)">
                <rect id="Table" width="482" height="100" y="35" fill="#2C3136" rx="4"/>
                <g id="Seat-Row-1" fill="#3B434B" transform="translate(3)">
                    <rect id="Rectangle-2" width="35" height="30" class="seat" data-seat-id="0" rx="2"/>
                    <rect id="Rectangle-2" width="35" height="30" x="120" class="seat" data-seat-id="1" rx="2"/>
                    <rect id="Rectangle-2" width="35" height="30" x="160" class="seat" data-seat-id="2" rx="2"/>
                    <rect id="Rectangle-2" width="35" height="30" x="40" class="seat" data-seat-id="3" rx="2"/>
                    <rect id="Rectangle-2" width="35" height="30" x="200" class="seat" data-seat-id="4" rx="2"/>
                    <rect id="Rectangle-2" width="35" height="30" x="80" class="seat" data-seat-id="5" rx="2"/>
                    <rect id="Rectangle-2" width="35" height="30" x="320" class="seat" data-seat-id="6" rx="2"/>
                    <rect id="Rectangle-2" width="35" height="30" x="280" class="seat" data-seat-id="7" rx="2"/>
                    <rect id="Rectangle-2" width="35" height="30" x="360" class="seat" data-seat-id="8" rx="2"/>
                    <rect id="Rectangle-2" width="35" height="30" x="240" class="seat" data-seat-id="9" rx="2"/>
                    <rect id="Rectangle-2" width="35" height="30" x="400" class="seat" data-seat-id="10" rx="2"/>
                    <rect id="Rectangle-2" width="35" height="30" x="440" class="seat" data-seat-id="11" rx="2"/>
                </g>
                <g id="Seat-Row-2" fill="#3B434B" transform="translate(3 140)">
                    <rect id="Rectangle-2" width="35" height="30" class="seat" data-seat-id="12" rx="2"/>
                    <rect id="Rectangle-2" width="35" height="30" x="120" class="seat" data-seat-id="13" rx="2"/>
                    <rect id="Rectangle-2" width="35" height="30" x="160" class="seat" data-seat-id="14" rx="2"/>
                    <rect id="Rectangle-2" width="35" height="30" x="40" class="seat" data-seat-id="15" rx="2"/>
                    <rect id="Rectangle-2" width="35" height="30" x="200" class="seat" data-seat-id="16" rx="2"/>
                    <rect id="Rectangle-2" width="35" height="30" x="80" class="seat" data-seat-id="17" rx="2"/>
                    <rect id="Rectangle-2" width="35" height="30" x="320" class="seat" data-seat-id="18" rx="2"/>
                    <rect id="Rectangle-2" width="35" height="30" x="280" class="seat" data-seat-id="19" rx="2"/>
                    <rect id="Rectangle-2" width="35" height="30" x="360" class="seat" data-seat-id="20" rx="2"/>
                    <rect id="Rectangle-2" width="35" height="30" x="240" class="seat" data-seat-id="21" rx="2"/>
                    <rect id="Rectangle-2" width="35" height="30" x="400" class="seat" data-seat-id="22" rx="2"/>
                    <rect id="Rectangle-2" width="35" height="30" x="440" class="seat" data-seat-id="23" rx="2"/>
                </g>
            </g>
            <text fill="#FFF" font-family="UbuntuMono-Regular, Ubuntu Mono" font-size="18">
                <tspan x="52" y="247">Table 1</tspan>
            </text>
        </g>
        <g id="Table-2" transform="translate(279 203)">
            <g id="Table">
                <rect width="400" height="100" y="35" fill="#2C3136" rx="4"/>
                <g id="Seat-Row-1" fill="#3B434B" transform="translate(3)">
                    <rect id="Rectangle-2" width="35" height="30" class="seat" data-seat-id="24" rx="2"/>
                    <rect id="Rectangle-2" width="35" height="30" x="120" class="seat" data-seat-id="25" rx="2"/>
                    <rect id="Rectangle-2" width="35" height="30" x="160" class="seat" data-seat-id="26" rx="2"/>
                    <rect id="Rectangle-2" width="35" height="30" x="40" class="seat" data-seat-id="27" rx="2"/>
                    <rect id="Rectangle-2" width="35" height="30" x="200" class="seat" data-seat-id="28" rx="2"/>
                    <rect id="Rectangle-2" width="35" height="30" x="80" class="seat" data-seat-id="29" rx="2"/>
                    <rect id="Rectangle-2" width="35" height="30" x="320" class="seat" data-seat-id="30" rx="2"/>
                    <rect id="Rectangle-2" width="35" height="30" x="280" class="seat" data-seat-id="31" rx="2"/>
                    <rect id="Rectangle-2" width="35" height="30" x="360" class="seat" data-seat-id="32" rx="2"/>
                    <rect id="Rectangle-2" width="35" height="30" x="240" class="seat" data-seat-id="33" rx="2"/>
                </g>
                <g id="Seat-Row-2" fill="#3B434B" transform="translate(3 140)">
                    <rect id="Rectangle-2" width="35" height="30" class="seat" data-seat-id="34" rx="2"/>
                    <rect id="Rectangle-2" width="35" height="30" x="120" class="seat" data-seat-id="35" rx="2"/>
                    <rect id="Rectangle-2" width="35" height="30" x="160" class="seat" data-seat-id="36" rx="2"/>
                    <rect id="Rectangle-2" width="35" height="30" x="40" class="seat" data-seat-id="37" rx="2"/>
                    <rect id="Rectangle-2" width="35" height="30" x="200" class="seat" data-seat-id="38" rx="2"/>
                    <rect id="Rectangle-2" width="35" height="30" x="80" class="seat" data-seat-id="39" rx="2"/>
                    <rect id="Rectangle-2" width="35" height="30" x="320" class="seat" data-seat-id="40" rx="2"/>
                    <rect id="Rectangle-2" width="35" height="30" x="280" class="seat" data-seat-id="41" rx="2"/>
                    <rect id="Rectangle-2" width="35" height="30" x="360" class="seat" data-seat-id="42" rx="2"/>
                    <rect id="Rectangle-2" width="35" height="30" x="240" class="seat" data-seat-id="43" rx="2"/>
                </g>
            </g>
            <text fill="#FFF" font-family="UbuntuMono-Regular, Ubuntu Mono" font-size="18">
                <tspan x="169" y="91">Table 2</tspan>
            </text>
        </g>
        <g id="Table-3" transform="translate(718 173)">
            <g id="Table" transform="rotate(90 85 85)">
                <rect width="400" height="100" y="35" fill="#2C3136" rx="4"/>
                <g id="Seat-Row-1" fill="#3B434B" transform="translate(3)">
                    <rect id="Rectangle-2" width="35" height="30" class="seat" data-seat-id="44" rx="2"/>
                    <rect id="Rectangle-2" width="35" height="30" x="120" class="seat" data-seat-id="45" rx="2"/>
                    <rect id="Rectangle-2" width="35" height="30" x="160" class="seat" data-seat-id="46" rx="2"/>
                    <rect id="Rectangle-2" width="35" height="30" x="40" class="seat" data-seat-id="47" rx="2"/>
                    <rect id="Rectangle-2" width="35" height="30" x="200" class="seat" data-seat-id="48" rx="2"/>
                    <rect id="Rectangle-2" width="35" height="30" x="80" class="seat" data-seat-id="49" rx="2"/>
                    <rect id="Rectangle-2" width="35" height="30" x="320" class="seat" data-seat-id="50" rx="2"/>
                    <rect id="Rectangle-2" width="35" height="30" x="280" class="seat" data-seat-id="51" rx="2"/>
                    <rect id="Rectangle-2" width="35" height="30" x="360" class="seat" data-seat-id="52" rx="2"/>
                    <rect id="Rectangle-2" width="35" height="30" x="240" class="seat" data-seat-id="53" rx="2"/>
                </g>
                <g id="Seat-Row-2" fill="#3B434B" transform="translate(3 140)">
                    <rect id="Rectangle-2" width="35" height="30" class="seat" data-seat-id="54" rx="2"/>
                    <rect id="Rectangle-2" width="35" height="30" x="120" class="seat" data-seat-id="55" rx="2"/>
                    <rect id="Rectangle-2" width="35" height="30" x="160" class="seat" data-seat-id="56" rx="2"/>
                    <rect id="Rectangle-2" width="35" height="30" x="40" class="seat" data-seat-id="57" rx="2"/>
                    <rect id="Rectangle-2" width="35" height="30" x="200" class="seat" data-seat-id="58" rx="2"/>
                    <rect id="Rectangle-2" width="35" height="30" x="80" class="seat" data-seat-id="59" rx="2"/>
                    <rect id="Rectangle-2" width="35" height="30" x="320" class="seat" data-seat-id="60" rx="2"/>
                    <rect id="Rectangle-2" width="35" height="30" x="280" class="seat" data-seat-id="61" rx="2"/>
                    <rect id="Rectangle-2" width="35" height="30" x="360" class="seat" data-seat-id="62" rx="2"/>
                    <rect id="Rectangle-2" width="35" height="30" x="240" class="seat" data-seat-id="63" rx="2"/>
                </g>
            </g>
            <text fill="#FFF" font-family="UbuntuMono-Regular, Ubuntu Mono" font-size="18">
                <tspan x="54" y="206">Table 3</tspan>
            </text>
        </g>
        <g id="Table-4" transform="translate(292 433)">
            <rect id="Table" width="349" height="81" y="35" fill="#2C3136" rx="4"/>
            <g id="Seat-Row-1" fill="#473333" transform="translate(4 121)">
                <rect id="Rectangle-2" width="35" height="30" x="40" rx="2"/>
                <rect id="Rectangle-2" width="35" height="30" rx="2"/>
                <rect id="Rectangle-2" width="35" height="30" x="160" rx="2"/>
                <rect id="Rectangle-2" width="35" height="30" x="80" rx="2"/>
                <rect id="Rectangle-2" width="35" height="30" x="120" rx="2"/>
                <rect id="Rectangle-2" width="35" height="30" x="240" rx="2"/>
                <rect id="Rectangle-2" width="35" height="30" x="280" rx="2"/>
                <rect id="Rectangle-2" width="35" height="30" x="200" rx="2"/>
            </g>
            <g id="Seat-Row-2" fill="#3B434B" transform="translate(4)">
                <rect id="Rectangle-2" width="35" height="30" x="40" class="seat" data-seat-id="64" rx="2"/>
                <rect id="Rectangle-2" width="35" height="30" class="seat" data-seat-id="65" rx="2"/>
                <rect id="Rectangle-2" width="35" height="30" x="160" class="seat" data-seat-id="66" rx="2"/>
                <rect id="Rectangle-2" width="35" height="30" x="80" class="seat" data-seat-id="67" rx="2"/>
                <rect id="Rectangle-2" width="35" height="30" x="120" class="seat" data-seat-id="68" rx="2"/>
                <rect id="Rectangle-2" width="35" height="30" x="240" class="seat" data-seat-id="69" rx="2"/>
                <rect id="Rectangle-2" width="35" height="30" x="280" class="seat" data-seat-id="70" rx="2"/>
                <rect id="Rectangle-2" width="35" height="30" x="200" class="seat" data-seat-id="71" rx="2"/>
            </g>
            <g id="Seating-Row-3" fill="#473333" transform="rotate(90 173 211)">
                <rect id="Rectangle-2" width="35" height="30" rx="2"/>
                <rect id="Rectangle-2" width="35" height="30" x="40" rx="2"/>
            </g>
            <text fill="#FFF" font-family="UbuntuMono-Regular, Ubuntu Mono" font-size="18">
                <tspan x="84" y="82">Table 4</tspan>
            </text>
        </g>
        <g id="Fire-Exit" transform="translate(327 622)">
            <rect id="Rectangle" width="286" height="37" fill="#00E676" rx="4"/>
            <text fill="#000" fill-opacity=".87" font-family="UbuntuMono-Regular, Ubuntu Mono" font-size="18">
                <tspan x="103" y="22">Fire Exit</tspan>
            </text>
        </g>
        <g id="Entrance" transform="rotate(-90 519.5 -369.5)">
            <rect id="Rectangle" width="115" height="37" fill="#00E676" rx="4"/>
            <text fill="#000" fill-opacity=".87" font-family="UbuntuMono-Regular, Ubuntu Mono" font-size="18">
                <tspan x="21.5" y="22">Entrance</tspan>
            </text>
        </g>
        <g id="Projector-Screen" transform="translate(82 9)">
            <rect id="Rectangle" width="286" height="26" fill="#607D8B" rx="4"/>
            <text fill="#FFF" font-family="UbuntuMono-Regular, Ubuntu Mono" font-size="18">
                <tspan x="71" y="19">Projector Screen</tspan>
            </text>
        </g>
        <g id="Projector-Screen" transform="translate(536 9)">
            <rect id="Rectangle" width="286" height="26" fill="#607D8B" rx="4"/>
            <text fill="#FFF" font-family="UbuntuMono-Regular, Ubuntu Mono" font-size="18">
                <tspan x="71" y="19">Projector Screen</tspan>
            </text>
        </g>
        <g id="Windows" transform="translate(-3 43)">
            <rect id="Rectangle" width="33" height="568" fill="#455A64" rx="4"/>
            <text fill="#FFF" font-family="UbuntuMono-Regular, Ubuntu Mono" font-size="18"
                  transform="rotate(-90 17 283.5)">
                <tspan x="-14.5" y="289.5">Windows</tspan>
            </text>
        </g>
        <path id="Rectangle-2" fill="#222528" d="M497 491h38v38h-38z"/>
    </g>
</svg>
