<?xml version="1.0" encoding="UTF-8"?>
<svg viewBox="0 0 920 1708" version="1.1" xmlns="http://www.w3.org/2000/svg">
    <defs></defs>
    <g fill="none" fill-rule="evenodd">
        <g id="Table-1" transform="translate(70 193)">
            <g id="Group" transform="rotate(90 85 85.5)">
                <rect id="Table" width="482" height="100" y="35" fill="#2C3136" rx="4"/>
                <g id="Seat-Row-1" fill="#3B434B" transform="translate(3)">
                    <rect width="35" height="30" class="seat" data-seat-id="0" rx="2"/>
                    <rect width="35" height="30" class="seat" data-seat-id="1" x="120" rx="2"/>
                    <rect width="35" height="30" class="seat" data-seat-id="2" x="160" rx="2"/>
                    <rect width="35" height="30" class="seat" data-seat-id="3" x="40" rx="2"/>
                    <rect width="35" height="30" class="seat" data-seat-id="4" x="200" rx="2"/>
                    <rect width="35" height="30" class="seat" data-seat-id="5" x="80" rx="2"/>
                    <rect width="35" height="30" class="seat" data-seat-id="6" x="320" rx="2"/>
                    <rect width="35" height="30" class="seat" data-seat-id="7" x="280" rx="2"/>
                    <rect width="35" height="30" class="seat" data-seat-id="8" x="360" rx="2"/>
                    <rect width="35" height="30" class="seat" data-seat-id="9" x="240" rx="2"/>
                    <rect width="35" height="30" class="seat" data-seat-id="10" x="400" rx="2"/>
                    <rect width="35" height="30" class="seat" data-seat-id="11" x="440" rx="2"/>
                </g>
                <g id="Seat-Row-2" fill="#3B434B" transform="translate(3 140)">
                    <rect width="35" height="30" class="seat" data-seat-id="12" rx="2"/>
                    <rect width="35" height="30" class="seat" data-seat-id="13" x="120" rx="2"/>
                    <rect width="35" height="30" class="seat" data-seat-id="14" x="160" rx="2"/>
                    <rect width="35" height="30" class="seat" data-seat-id="15" x="40" rx="2"/>
                    <rect width="35" height="30" class="seat" data-seat-id="16" x="200" rx="2"/>
                    <rect width="35" height="30" class="seat" data-seat-id="17" x="80" rx="2"/>
                    <rect width="35" height="30" class="seat" data-seat-id="18" x="320" rx="2"/>
                    <rect width="35" height="30" class="seat" data-seat-id="19" x="280" rx="2"/>
                    <rect width="35" height="30" class="seat" data-seat-id="20" x="360" rx="2"/>
                    <rect width="35" height="30" class="seat" data-seat-id="21" x="240" rx="2"/>
                    <rect width="35" height="30" class="seat" data-seat-id="22" x="400" rx="2"/>
                    <rect width="35" height="30" class="seat" data-seat-id="23" x="440" rx="2"/>
                </g>
            </g>
            <text fill="#FFF" font-family="UbuntuMono-Regular, Ubuntu Mono" font-size="18">
                <tspan x="52" y="247">Table 1</tspan>
            </text>
        </g>
        <g id="Table-2" transform="translate(279 285)">
            <g id="20-Table">
                <rect id="Table" width="400" height="100" y="35" fill="#2C3136" rx="4"/>
                <g id="Seat-Row-1" fill="#3B434B" transform="translate(3)">
                    <rect width="35" height="30" class="seat" data-seat-id="24" rx="2"/>
                    <rect width="35" height="30" class="seat" data-seat-id="25" x="120" rx="2"/>
                    <rect width="35" height="30" class="seat" data-seat-id="26" x="160" rx="2"/>
                    <rect width="35" height="30" class="seat" data-seat-id="27" x="40" rx="2"/>
                    <rect width="35" height="30" class="seat" data-seat-id="28" x="200" rx="2"/>
                    <rect width="35" height="30" class="seat" data-seat-id="29" x="80" rx="2"/>
                    <rect width="35" height="30" class="seat" data-seat-id="30" x="320" rx="2"/>
                    <rect width="35" height="30" class="seat" data-seat-id="31" x="280" rx="2"/>
                    <rect width="35" height="30" class="seat" data-seat-id="32" x="360" rx="2"/>
                    <rect width="35" height="30" class="seat" data-seat-id="33" x="240" rx="2"/>
                </g>
                <g id="Seat-Row-2" fill="#3B434B" transform="translate(3 140)">
                    <rect width="35" height="30" class="seat" data-seat-id="34" rx="2"/>
                    <rect width="35" height="30" class="seat" data-seat-id="35" x="120" rx="2"/>
                    <rect width="35" height="30" class="seat" data-seat-id="36" x="160" rx="2"/>
                    <rect width="35" height="30" class="seat" data-seat-id="37" x="40" rx="2"/>
                    <rect width="35" height="30" class="seat" data-seat-id="38" x="200" rx="2"/>
                    <rect width="35" height="30" class="seat" data-seat-id="39" x="80" rx="2"/>
                    <rect width="35" height="30" class="seat" data-seat-id="40" x="320" rx="2"/>
                    <rect width="35" height="30" class="seat" data-seat-id="41" x="280" rx="2"/>
                    <rect width="35" height="30" class="seat" data-seat-id="42" x="360" rx="2"/>
                    <rect width="35" height="30" class="seat" data-seat-id="43" x="240" rx="2"/>
                </g>
            </g>
            <text fill="#FFF" font-family="UbuntuMono-Regular, Ubuntu Mono" font-size="18">
                <tspan x="169" y="91">Table 2</tspan>
            </text>
        </g>
        <g id="Table-3" transform="translate(718 262)">
            <g id="20-Table" transform="rotate(90 85 85)">
                <rect id="Table" width="400" height="100" y="35" fill="#2C3136" rx="4"/>
                <g id="Seat-Row-1" fill="#3B434B" transform="translate(3)">
                    <rect width="35" height="30" class="seat" data-seat-id="44" rx="2"/>
                    <rect width="35" height="30" class="seat" data-seat-id="45" x="120" rx="2"/>
                    <rect width="35" height="30" class="seat" data-seat-id="46" x="160" rx="2"/>
                    <rect width="35" height="30" class="seat" data-seat-id="47" x="40" rx="2"/>
                    <rect width="35" height="30" class="seat" data-seat-id="48" x="200" rx="2"/>
                    <rect width="35" height="30" class="seat" data-seat-id="49" x="80" rx="2"/>
                    <rect width="35" height="30" class="seat" data-seat-id="50" x="320" rx="2"/>
                    <rect width="35" height="30" class="seat" data-seat-id="51" x="280" rx="2"/>
                    <rect width="35" height="30" class="seat" data-seat-id="52" x="360" rx="2"/>
                    <rect width="35" height="30" class="seat" data-seat-id="53" x="240" rx="2"/>
                </g>
                <g id="Seat-Row-2" fill="#3B434B" transform="translate(3 140)">
                    <rect width="35" height="30" class="seat" data-seat-id="54" rx="2"/>
                    <rect width="35" height="30" class="seat" data-seat-id="55" x="120" rx="2"/>
                    <rect width="35" height="30" class="seat" data-seat-id="56" x="160" rx="2"/>
                    <rect width="35" height="30" class="seat" data-seat-id="57" x="40" rx="2"/>
                    <rect width="35" height="30" class="seat" data-seat-id="58" x="200" rx="2"/>
                    <rect width="35" height="30" class="seat" data-seat-id="59" x="80" rx="2"/>
                    <rect width="35" height="30" class="seat" data-seat-id="60" x="320" rx="2"/>
                    <rect width="35" height="30" class="seat" data-seat-id="61" x="280" rx="2"/>
                    <rect width="35" height="30" class="seat" data-seat-id="62" x="360" rx="2"/>
                    <rect width="35" height="30" class="seat" data-seat-id="63" x="240" rx="2"/>
                </g>
            </g>
            <text fill="#FFF" font-family="UbuntuMono-Regular, Ubuntu Mono" font-size="18">
                <tspan x="54" y="206">Table 3</tspan>
            </text>
        </g>
        <g id="Table-5" transform="translate(97 1025)">
            <g id="28-Table" transform="rotate(90 85 85)">
                <rect id="Table" width="561" height="100" y="35" fill="#2C3136" rx="4"/>
                <g id="Seat-Row-1" fill="#3B434B" transform="translate(3)">
                    <rect width="35" height="30" class="seat" data-seat-id="64" rx="2"/>
                    <rect width="35" height="30" class="seat" data-seat-id="65" x="120" rx="2"/>
                    <rect width="35" height="30" class="seat" data-seat-id="66" x="160" rx="2"/>
                    <rect width="35" height="30" class="seat" data-seat-id="67" x="40" rx="2"/>
                    <rect width="35" height="30" class="seat" data-seat-id="68" x="200" rx="2"/>
                    <rect width="35" height="30" class="seat" data-seat-id="69" x="80" rx="2"/>
                    <rect width="35" height="30" class="seat" data-seat-id="70" x="320" rx="2"/>
                    <rect width="35" height="30" class="seat" data-seat-id="71" x="280" rx="2"/>
                    <rect width="35" height="30" class="seat" data-seat-id="72" x="360" rx="2"/>
                    <rect width="35" height="30" class="seat" data-seat-id="73" x="240" rx="2"/>
                    <rect width="35" height="30" class="seat" data-seat-id="74" x="400" rx="2"/>
                    <rect width="35" height="30" class="seat" data-seat-id="75" x="440" rx="2"/>
                    <rect width="35" height="30" class="seat" data-seat-id="76" x="480" rx="2"/>
                    <rect width="35" height="30" class="seat" data-seat-id="77" x="520" rx="2"/>
                </g>
                <g id="Seat-Row-2" fill="#3B434B" transform="translate(3 140)">
                    <rect width="35" height="30" class="seat" data-seat-id="78" rx="2"/>
                    <rect width="35" height="30" class="seat" data-seat-id="79" x="120" rx="2"/>
                    <rect width="35" height="30" class="seat" data-seat-id="80" x="160" rx="2"/>
                    <rect width="35" height="30" class="seat" data-seat-id="81" x="40" rx="2"/>
                    <rect width="35" height="30" class="seat" data-seat-id="82" x="200" rx="2"/>
                    <rect width="35" height="30" class="seat" data-seat-id="83" x="80" rx="2"/>
                    <rect width="35" height="30" class="seat" data-seat-id="84" x="320" rx="2"/>
                    <rect width="35" height="30" class="seat" data-seat-id="85" x="280" rx="2"/>
                    <rect width="35" height="30" class="seat" data-seat-id="86" x="360" rx="2"/>
                    <rect width="35" height="30" class="seat" data-seat-id="87" x="240" rx="2"/>
                    <rect width="35" height="30" class="seat" data-seat-id="88" x="400" rx="2"/>
                    <rect width="35" height="30" class="seat" data-seat-id="89" x="440" rx="2"/>
                    <rect width="35" height="30" class="seat" data-seat-id="90" x="480" rx="2"/>
                    <rect width="35" height="30" class="seat" data-seat-id="91" x="520" rx="2"/>
                </g>
            </g>
            <text fill="#FFF" font-family="UbuntuMono-Regular, Ubuntu Mono" font-size="18">
                <tspan x="54" y="285">Table 5</tspan>
            </text>
        </g>
        <g id="Table-8" transform="translate(650 1025)">
            <g id="28-Table" transform="rotate(90 85 85)">
                <rect id="Table" width="561" height="100" y="35" fill="#2C3136" rx="4"/>
                <g id="Seat-Row-1" fill="#3B434B" transform="translate(3)">
                    <rect width="35" height="30" class="seat" data-seat-id="92" rx="2"/>
                    <rect width="35" height="30" class="seat" data-seat-id="93" x="120" rx="2"/>
                    <rect width="35" height="30" class="seat" data-seat-id="94" x="160" rx="2"/>
                    <rect width="35" height="30" class="seat" data-seat-id="95" x="40" rx="2"/>
                    <rect width="35" height="30" class="seat" data-seat-id="96" x="200" rx="2"/>
                    <rect width="35" height="30" class="seat" data-seat-id="97" x="80" rx="2"/>
                    <rect width="35" height="30" class="seat" data-seat-id="98" x="320" rx="2"/>
                    <rect width="35" height="30" class="seat" data-seat-id="99" x="280" rx="2"/>
                    <rect width="35" height="30" class="seat" data-seat-id="100" x="360" rx="2"/>
                    <rect width="35" height="30" class="seat" data-seat-id="101" x="240" rx="2"/>
                    <rect width="35" height="30" class="seat" data-seat-id="102" x="400" rx="2"/>
                    <rect width="35" height="30" class="seat" data-seat-id="103" x="440" rx="2"/>
                    <rect width="35" height="30" class="seat" data-seat-id="104" x="480" rx="2"/>
                    <rect width="35" height="30" class="seat" data-seat-id="105" x="520" rx="2"/>
                </g>
                <g id="Seat-Row-2" fill="#3B434B" transform="translate(3 140)">
                    <rect width="35" height="30" class="seat" data-seat-id="106" rx="2"/>
                    <rect width="35" height="30" class="seat" data-seat-id="107" x="120" rx="2"/>
                    <rect width="35" height="30" class="seat" data-seat-id="108" x="160" rx="2"/>
                    <rect width="35" height="30" class="seat" data-seat-id="109" x="40" rx="2"/>
                    <rect width="35" height="30" class="seat" data-seat-id="110" x="200" rx="2"/>
                    <rect width="35" height="30" class="seat" data-seat-id="111" x="80" rx="2"/>
                    <rect width="35" height="30" class="seat" data-seat-id="112" x="320" rx="2"/>
                    <rect width="35" height="30" class="seat" data-seat-id="113" x="280" rx="2"/>
                    <rect width="35" height="30" class="seat" data-seat-id="114" x="360" rx="2"/>
                    <rect width="35" height="30" class="seat" data-seat-id="115" x="240" rx="2"/>
                    <rect width="35" height="30" class="seat" data-seat-id="116" x="400" rx="2"/>
                    <rect width="35" height="30" class="seat" data-seat-id="117" x="440" rx="2"/>
                    <rect width="35" height="30" class="seat" data-seat-id="118" x="480" rx="2"/>
                    <rect width="35" height="30" class="seat" data-seat-id="119" x="520" rx="2"/>
                </g>
            </g>
            <text fill="#FFF" font-family="UbuntuMono-Regular, Ubuntu Mono" font-size="18">
                <tspan x="54" y="284">Table 8</tspan>
            </text>
        </g>
        <g id="Table-7" transform="translate(385 1337)">
            <g id="12-Table" transform="rotate(90 75.5 75.5)">
                <rect id="Table" width="241" height="81" y="35" fill="#2C3136" rx="4"/>
                <g id="Seat-Row-1" fill="#3B434B" transform="translate(3 121)">
                    <rect width="35" height="30" class="seat" data-seat-id="120" rx="2"/>
                    <rect width="35" height="30" class="seat" data-seat-id="121" x="120" rx="2"/>
                    <rect width="35" height="30" class="seat" data-seat-id="122" x="40" rx="2"/>
                    <rect width="35" height="30" class="seat" data-seat-id="123" x="80" rx="2"/>
                    <rect width="35" height="30" class="seat" data-seat-id="124" x="200" rx="2"/>
                    <rect width="35" height="30" class="seat" data-seat-id="125" x="160" rx="2"/>
                </g>
                <g id="Seat-Row-2" fill="#3B434B" transform="translate(3)">
                    <rect width="35" height="30" class="seat" data-seat-id="126" rx="2"/>
                    <rect width="35" height="30" class="seat" data-seat-id="127" x="120" rx="2"/>
                    <rect width="35" height="30" class="seat" data-seat-id="128" x="40" rx="2"/>
                    <rect width="35" height="30" class="seat" data-seat-id="129" x="80" rx="2"/>
                    <rect width="35" height="30" class="seat" data-seat-id="130" x="200" rx="2"/>
                    <rect width="35" height="30" class="seat" data-seat-id="131" x="160" rx="2"/>
                </g>
            </g>
            <text fill="#FFF" font-family="UbuntuMono-Regular, Ubuntu Mono" font-size="18">
                <tspan x="44" y="125">Table 7</tspan>
            </text>
        </g>
        <g id="Table-6" transform="translate(385 999)">
            <g id="12-Table" transform="rotate(90 75.5 75.5)">
                <rect id="Table" width="241" height="81" y="35" fill="#2C3136" rx="4"/>
                <g id="Seat-Row-1" fill="#3B434B" transform="translate(3 121)">
                    <rect width="35" height="30" class="seat" data-seat-id="132" rx="2"/>
                    <rect width="35" height="30" class="seat" data-seat-id="133" x="120" rx="2"/>
                    <rect width="35" height="30" class="seat" data-seat-id="134" x="40" rx="2"/>
                    <rect width="35" height="30" class="seat" data-seat-id="135" x="80" rx="2"/>
                    <rect width="35" height="30" class="seat" data-seat-id="136" x="200" rx="2"/>
                    <rect width="35" height="30" class="seat" data-seat-id="137" x="160" rx="2"/>
                </g>
                <g id="Seat-Row-2" fill="#3B434B" transform="translate(3)">
                    <rect width="35" height="30" class="seat" data-seat-id="138" rx="2"/>
                    <rect width="35" height="30" class="seat" data-seat-id="139" x="120" rx="2"/>
                    <rect width="35" height="30" class="seat" data-seat-id="140" x="40" rx="2"/>
                    <rect width="35" height="30" class="seat" data-seat-id="141" x="80" rx="2"/>
                    <rect width="35" height="30" class="seat" data-seat-id="142" x="200" rx="2"/>
                    <rect width="35" height="30" class="seat" data-seat-id="143" x="160" rx="2"/>
                </g>
            </g>
            <text fill="#FFF" font-family="UbuntuMono-Regular, Ubuntu Mono" font-size="18">
                <tspan x="44" y="125">Table 6</tspan>
            </text>
        </g>
        <g id="Table-4" transform="translate(279 507)">
            <g id="20-Table">
                <rect id="Table" width="400" height="100" y="35" fill="#2C3136" rx="4"/>
                <g id="Seat-Row-1" fill="#3B434B" transform="translate(3)">
                    <rect width="35" height="30" class="seat" data-seat-id="144" rx="2"/>
                    <rect width="35" height="30" class="seat" data-seat-id="145" x="120" rx="2"/>
                    <rect width="35" height="30" class="seat" data-seat-id="146" x="160" rx="2"/>
                    <rect width="35" height="30" class="seat" data-seat-id="147" x="40" rx="2"/>
                    <rect width="35" height="30" class="seat" data-seat-id="148" x="200" rx="2"/>
                    <rect width="35" height="30" class="seat" data-seat-id="149" x="80" rx="2"/>
                    <rect width="35" height="30" class="seat" data-seat-id="150" x="320" rx="2"/>
                    <rect width="35" height="30" class="seat" data-seat-id="151" x="280" rx="2"/>
                    <rect width="35" height="30" class="seat" data-seat-id="152" x="360" rx="2"/>
                    <rect width="35" height="30" class="seat" data-seat-id="153" x="240" rx="2"/>
                </g>
                <g id="Seat-Row-2" fill="#3B434B" transform="translate(3 140)">
                    <rect width="35" height="30" class="seat" data-seat-id="154" rx="2"/>
                    <rect width="35" height="30" class="seat" data-seat-id="155" x="120" rx="2"/>
                    <rect width="35" height="30" class="seat" data-seat-id="156" x="160" rx="2"/>
                    <rect width="35" height="30" class="seat" data-seat-id="157" x="40" rx="2"/>
                    <rect width="35" height="30" class="seat" data-seat-id="158" x="200" rx="2"/>
                    <rect width="35" height="30" class="seat" data-seat-id="159" x="80" rx="2"/>
                    <rect width="35" height="30" class="seat" data-seat-id="160" x="320" rx="2"/>
                    <rect width="35" height="30" class="seat" data-seat-id="161" x="280" rx="2"/>
                    <rect width="35" height="30" class="seat" data-seat-id="162" x="360" rx="2"/>
                    <rect width="35" height="30" class="seat" data-seat-id="163" x="240" rx="2"/>
                </g>
            </g>
            <text fill="#FFF" font-family="UbuntuMono-Regular, Ubuntu Mono" font-size="18">
                <tspan x="97" y="90">Table 4</tspan>
            </text>
        </g>
        <g id="Fire-Exit" transform="translate(317 711)">
            <rect id="Rectangle" width="286" height="37" fill="#00E676" rx="4"/>
            <text fill="#000" fill-opacity=".87" font-family="UbuntuMono-Regular, Ubuntu Mono" font-size="18">
                <tspan x="103" y="23">Fire Exit</tspan>
            </text>
        </g>
        <g id="Entrance" transform="rotate(-90 564 -325)">
            <rect id="Rectangle" width="115" height="37" fill="#00E676" rx="4"/>
            <text fill="#000" fill-opacity=".87" font-family="UbuntuMono-Regular, Ubuntu Mono" font-size="18">
                <tspan x="21.5" y="22">Entrance</tspan>
            </text>
        </g>
        <g id="Entrance" transform="translate(735 1675)">
            <rect id="Rectangle" width="115" height="37" fill="#00E676" rx="4"/>
            <text fill="#000" fill-opacity=".87" font-family="UbuntuMono-Regular, Ubuntu Mono" font-size="18">
                <tspan x="21.5" y="22">Entrance</tspan>
            </text>
        </g>
        <g id="Entrance" transform="translate(67 1675)">
            <rect id="Rectangle" width="115" height="37" fill="#00E676" rx="4"/>
            <text fill="#000" fill-opacity=".87" font-family="UbuntuMono-Regular, Ubuntu Mono" font-size="18">
                <tspan x="21.5" y="22">Entrance</tspan>
            </text>
        </g>
        <g id="Projector-Screen" transform="translate(90 98)">
            <rect id="Rectangle" width="286" height="26" fill="#607D8B" rx="4"/>
            <text fill="#FFF" font-family="UbuntuMono-Regular, Ubuntu Mono" font-size="18">
                <tspan x="71" y="19">Projector Screen</tspan>
            </text>
        </g>
        <g id="Projector-Screen" transform="translate(544 98)">
            <rect id="Rectangle" width="286" height="26" fill="#607D8B" rx="4"/>
            <text fill="#FFF" font-family="UbuntuMono-Regular, Ubuntu Mono" font-size="18">
                <tspan x="71" y="19">Projector Screen</tspan>
            </text>
        </g>
        <g id="Projector-Screen" transform="translate(317 877)">
            <rect id="Rectangle" width="286" height="26" fill="#607D8B" rx="4"/>
            <text fill="#FFF" font-family="UbuntuMono-Regular, Ubuntu Mono" font-size="18">
                <tspan x="71" y="19">Projector Screen</tspan>
            </text>
        </g>
        <g id="Windows" transform="translate(-3 132)">
            <rect id="Rectangle" width="33" height="568" fill="#455A64" rx="4"/>
            <text fill="#FFF" font-family="UbuntuMono-Regular, Ubuntu Mono" font-size="18"
                  transform="rotate(-90 17 283.5)">
                <tspan x="-14.5" y="289.5">Windows</tspan>
            </text>
        </g>
        <path fill="#222528" d="M497 573h38v38h-38z"/>
        <path fill="#2C3136" d="M444 1272h33v33h-33z"/>
        <path id="Rectangle-3" fill="#2C3136" fill-rule="nonzero" d="M0 744h920v136H0zM0-2h920v103H0z"/>
        <text id="LIB-2" fill="#FFF" font-family="UbuntuMono-Bold, Ubuntu Mono" font-size="64" font-weight="bold">
            <tspan x="380" y="71">LIB 2</tspan>
        </text>
        <text id="LIB-1" fill="#FFF" font-family="UbuntuMono-Bold, Ubuntu Mono" font-size="64" font-weight="bold">
            <tspan x="380" y="833">LIB 1</tspan>
        </text>
    </g>
</svg>
