<svg width="835" height="880" xmlns="http://www.w3.org/2000/svg">
  <g id="Page-1" fill="none" fill-rule="evenodd">
    <g id="Home-Page">
      <g id="screen" transform="translate(54 561)">
        <g id="a-link" transform="translate(150 183)" fill="#222528" fill-rule="nonzero">
          <path id="a" d="M0 0h31v63H0z"/>
        </g>
        <path id="Shape" stroke="#6E6E6E" stroke-width="3" d="M151.5 184.5h28v60h-28z"/>
        <g id="b-link" transform="translate(102 239)" fill="#222528" fill-rule="nonzero">
          <path d="M8 0h109a8 8 0 0 1 8 8v8H0V8a8 8 0 0 1 8-8z" id="b"/>
        </g>
        <path d="M103.5 253.5h122V247a6.5 6.5 0 0 0-6.5-6.5H110a6.5 6.5 0 0 0-6.5 6.5v6.5z" id="Shape" stroke="#6E6E6E" stroke-width="3"/>
        <g id="Group">
          <g id="c-link" fill="#222528" fill-rule="nonzero">
            <rect id="c" width="329" height="194" rx="8"/>
          </g>
          <rect id="Rectangle-path" stroke="#6E6E6E" stroke-width="3" x="1.5" y="1.5" width="326" height="191" rx="8"/>
        </g>
        <path id="Shape" stroke="#6E6E6E" stroke-width="3" d="M13.5 13.5h301v168h-301z"/>
      </g>
      <g id="laptop" transform="translate(499 644)">
        <g id="a-link" transform="translate(22)" fill="#222528" fill-rule="nonzero">
          <path d="M8 0h246a8 8 0 0 1 8 8v149H0V8a8 8 0 0 1 8-8z" id="a"/>
        </g>
        <path d="M23.5 155.5h259V8a6.5 6.5 0 0 0-6.5-6.5H30A6.5 6.5 0 0 0 23.5 8v147.5z" id="Shape" stroke="#5D5D5D" stroke-width="3"/>
        <g id="b-link" transform="translate(0 154)" fill="#222528" fill-rule="nonzero">
          <path d="M4 0h299a4 4 0 0 1 4 4v5a9 9 0 0 1-9 9H9a9 9 0 0 1-9-9V4a4 4 0 0 1 4-4z" id="b"/>
        </g>
        <path d="M4 155.5a2.5 2.5 0 0 0-2.5 2.5v5a7.5 7.5 0 0 0 7.5 7.5h289a7.5 7.5 0 0 0 7.5-7.5v-5a2.5 2.5 0 0 0-2.5-2.5H4zm29.5-143h239v133h-239v-133z" id="Shape" stroke="#5D5D5D" stroke-width="3"/>
        <path d="M130 155h47a6 6 0 0 1-6 6h-35a6 6 0 0 1-6-6z" id="Shape" fill="#5D5D5D" fill-rule="nonzero"/>
      </g>
      <g id="shield" transform="translate(283 445)">
        <g id="a-link" transform="translate(41)" fill="#222528" fill-rule="nonzero">
          <path d="M.476 137.045c.115 52.853 36.782 99.258 92 125.673 55.218-26.415 91.885-72.82 92-125.673h.25V.4L92.601 44.216.476.4v136.645z" id="a"/>
        </g>
        <path d="M42.976 136.918v.123c.11 50.71 34.615 97.05 90.5 124.013 55.885-26.962 90.39-73.302 90.5-124.013l.003-1.496h.248V2.775L133.6 45.878 42.976 2.775v134.143z" id="Shape" stroke="#9B9B9B" stroke-width="3"/>
        <path d="M88.785 38.114l-2.371-1.11-31.346 31.347v3.48l33.717-33.717zm97.69 169.806c10.283-12.786 17.387-27.211 21.418-43.363l-80.427 80.427a210.195 210.195 0 0 0 6.01 3.018c13.186-6.361 24.64-13.522 34.41-21.494l18.589-18.588zm25.408-77.157v-.248l.082-35.495L89.284 217.7c5.76 5.741 12.27 11.112 19.543 16.118l103.056-103.055zm.193-84.832l.054-23.592-78.53 36.746-28.33-13.256-50.203 50.203v34.483c.048 22.24 4.465 41.86 13.392 59.032L212.076 45.93v.001z" id="Shape" stroke="#979797" stroke-width="3"/>
        <g id="b-link" transform="translate(0 197)" fill="#222528" fill-rule="nonzero">
          <path id="b" d="M247.1 5.85h21.827L247.788 52h-32.096l2.82-5.85H50.488l2.82 5.85H21.212L.073 5.85H21.28L18.6 0h231.18z"/>
        </g>
        <path id="Shape" stroke="#3D5AFE" stroke-width="3" d="M247.443 198.5H20.937l2.68 5.85H2.41l19.765 43.15H50.92l-2.82-5.85h172.8l-2.82 5.85h28.745l19.765-43.15h-21.827z"/>
        <g id="Group" transform="rotate(45 -75.06 220.426)">
          <g id="c-link" fill="#222528" fill-rule="nonzero">
            <path d="M16.958 33.048C7.937 33.048.623 25.835.623 16.937S7.937.827 16.958.827c9.022 0 16.336 7.212 16.336 16.11S25.98 33.048 16.958 33.048zm40.537 0c-9.022 0-16.335-7.213-16.335-16.111S48.473.827 57.495.827c9.022 0 16.335 7.212 16.335 16.11s-7.313 16.111-16.335 16.111z" id="c"/>
          </g>
          <path d="M16.958 31.548c8.198 0 14.836-6.546 14.836-14.611 0-8.065-6.638-14.61-14.836-14.61-8.197 0-14.835 6.545-14.835 14.61s6.638 14.611 14.835 14.611zm40.537 0c8.198 0 14.835-6.546 14.835-14.611 0-8.065-6.637-14.61-14.835-14.61S42.66 8.872 42.66 16.937s6.637 14.611 14.835 14.611z" id="Shape" stroke="#FDD835" stroke-width="3"/>
        </g>
        <g id="Group" transform="rotate(45 -5.177 192.772)">
          <g id="d-link" fill="#222528" fill-rule="nonzero">
            <path d="M16.444 72.868c-9.021 0-16.335-7.213-16.335-16.11 0-8.898 7.314-16.112 16.335-16.112 9.022 0 16.335 7.214 16.335 16.111 0 8.898-7.313 16.111-16.335 16.111zm.026-40.048C7.448 32.82.134 25.607.134 16.71.134 7.812 7.448.599 16.47.599c9.021 0 16.335 7.213 16.335 16.11 0 8.898-7.314 16.111-16.335 16.111z" id="d"/>
          </g>
          <path d="M16.444 71.368c8.198 0 14.835-6.546 14.835-14.61 0-8.065-6.637-14.612-14.835-14.612S1.609 48.693 1.609 56.757c0 8.065 6.637 14.611 14.835 14.611zm.026-40.048c8.197 0 14.835-6.546 14.835-14.61 0-8.065-6.638-14.611-14.835-14.611-8.198 0-14.836 6.546-14.836 14.61 0 8.065 6.638 14.611 14.836 14.611z" id="Shape" stroke="#3D5AFE" stroke-width="3"/>
        </g>
      </g>
      <g id="dot-bg" transform="translate(0 64)" fill-rule="nonzero">
        <circle id="dot-1" fill="#979797" cx="12" cy="137" r="12"/>
        <circle id="dot-2" fill="#5C5C5C" cx="104.5" cy="5.5" r="5.5"/>
        <circle id="dot-3" fill="#979797" cx="743.5" cy="251.5" r="5.5"/>
        <circle id="dot-4" fill="#494949" cx="383.5" cy="299.5" r="5.5"/>
        <circle id="dot-5" fill="#4F4F4F" cx="417.5" cy="49.5" r="5.5"/>
        <circle id="dot-6" fill="#6D6D6D" cx="823" cy="80" r="12"/>
        <circle id="dot-7" fill="#6D6D6D" cx="36" cy="787" r="12"/>
        <circle id="dot-8" fill="#979797" cx="812.5" cy="560.5" r="5.5"/>
        <circle id="dot-9" fill="#494949" cx="447.5" cy="810.5" r="5.5"/>
      </g>
      <g id="pizza" transform="translate(615 561)">
        <g id="a-link" transform="translate(10 8)" fill="#222528" fill-rule="nonzero">
          <path d="M142.909 28.959a10 10 0 0 0-4.84-12.46C116.759 5.721 94.562.332 71.479.332 48.431.332 26.54 5.704 5.808 16.45a10 10 0 0 0-4.752 12.415l61.59 162.897c1.953 5.166 7.725 7.77 12.89 5.817a10 10 0 0 0 5.818-5.817l24.71-65.356a1 1 0 0 1 1.936.353V143a6 6 0 0 0 12 0v-36c0 5.333 2.677 8.698 7.24 8.698 4.564 0 6.76-3.737 6.746-8.698l.013-52.47a11 11 0 0 1 .711-3.887l8.199-21.684z" id="a"/>
        </g>
        <path d="M151.506 36.428a8.5 8.5 0 0 0-4.115-10.59C126.29 15.163 104.325 9.831 81.48 9.831c-22.807 0-44.461 5.314-64.98 15.95a8.5 8.5 0 0 0-4.04 10.552l61.59 162.898a8.5 8.5 0 0 0 15.902 0l24.71-65.357a2.5 2.5 0 0 1 4.839.884V151a4.5 4.5 0 0 0 9 0v-36h3c0 4.617 2.122 7.198 5.74 7.198 3.363 0 5.259-2.637 5.246-7.198l.013-52.47c0-1.51.274-3.006.808-4.418l8.199-21.684h-.001z" id="Shape" stroke="#878787" stroke-width="3"/>
        <path d="M133 115a3 3 0 0 0-6 0h6z" id="Shape" fill="#878787" fill-rule="nonzero"/>
        <g id="b-link" fill="#222528" fill-rule="nonzero">
          <path d="M81.912.634c30.067 0 55.281 6.042 75.643 18.125 4.75 2.818 6.315 8.953 3.497 13.703a10 10 0 0 1-.227.364l-3.478 5.327a4 4 0 0 1-5.562 1.145c-17.681-11.746-41.025-17.62-70.033-17.62-29.032 0-52.366 5.884-70.002 17.65a4 4 0 0 1-5.532-1.085l-3.65-5.39c-3.096-4.572-1.9-10.79 2.674-13.887a10 10 0 0 1 .603-.377C26.553 6.619 51.909.634 81.912.634z" id="b"/>
        </g>
        <path d="M81.912 2.134c-29.753 0-54.851 5.924-75.317 17.753a8.5 8.5 0 0 0-2.784 12.126L7.46 37.4a2.5 2.5 0 0 0 3.457.678c17.906-11.945 41.526-17.9 70.834-17.9 29.283 0 52.913 5.945 70.863 17.87a2.5 2.5 0 0 0 3.476-.716l3.478-5.327a8.5 8.5 0 0 0-2.78-11.957C136.676 8.113 111.725 2.134 81.913 2.134h-.001zM30.609 84.338A17.67 17.67 0 0 0 33 84.5c9.665 0 17.5-7.835 17.5-17.5S42.665 49.5 33 49.5a17.456 17.456 0 0 0-13.263 6.083l10.872 28.755zm82.286 54.208A24.385 24.385 0 0 0 98 133.5c-13.531 0-24.5 10.969-24.5 24.5 0 12.936 10.04 23.568 22.799 24.442l16.596-43.896z" id="Shape" stroke="#878787" stroke-width="3"/>
        <circle id="Oval" stroke="#878787" stroke-width="3" cx="97" cy="107" r="7.5"/>
        <circle id="Oval" stroke="#878787" stroke-width="3" cx="101.5" cy="48.5" r="12"/>
      </g>
      <g id="console" transform="translate(230 732)">
        <g id="a-link" transform="translate(15 50)" fill="#222528" fill-rule="nonzero">
          <path id="a" d="M.13.299h318.629v22.069H.13z"/>
        </g>
        <path id="Shape" stroke="#878787" stroke-width="3" d="M16.63 51.799h315.629v19.069H16.63z"/>
        <g id="b-link" transform="translate(0 8)" fill="#222528" fill-rule="nonzero">
          <path id="b" d="M0 0h348v53.333H0z"/>
        </g>
        <path id="Shape" stroke="#878787" stroke-width="3" d="M1.5 9.5h345v50.333H1.5z"/>
        <g id="c-link" transform="translate(7 65)" fill="#222528" fill-rule="nonzero">
          <path id="c" d="M.12.931h333.76V23H.12z"/>
        </g>
        <path id="Shape" stroke="#878787" stroke-width="3" d="M8.62 67.431h330.76V86.5H8.62z"/>
        <ellipse id="Oval" fill="#878787" fill-rule="nonzero" cx="326.639" cy="34.667" rx="7.12" ry="7.356"/>
        <g id="d-link" transform="translate(29)" fill="#222528" fill-rule="nonzero">
          <path d="M115.066 61.979h-70.91c-3.065 0-4.97 1.893-6.346 4.324L25.58 87.929c-3.786 6.737-12.169 9.046-18.724 5.156-5.558-3.297-8.018-9.99-6.333-16.056l13.583-53.392C17.317 10.071 29.218 0 43.406 0h72.189c14.303 0 26.281 10.235 29.377 23.967l13.505 53.088c1.685 6.066-.775 12.758-6.333 16.055-6.555 3.89-14.938 1.582-18.723-5.155l-11.587-20.503c-1.997-3.533-3.73-5.473-6.768-5.473z" id="d"/>
        </g>
        <path d="M144.066 60.479c3.47 0 5.6 1.857 8.073 6.235l11.59 20.506c3.374 6.007 10.823 8.058 16.65 4.6 4.885-2.898 7.185-8.848 5.645-14.396l-13.515-53.127C169.519 11.037 157.988 1.5 144.595 1.5H72.407c-13.279 0-24.739 9.376-27.848 22.507L30.968 77.431c-1.532 5.516.768 11.465 5.653 14.364 5.827 3.458 13.276 1.407 16.653-4.604l12.23-21.627c1.842-3.256 4.27-5.085 7.652-5.085h70.91z" id="Shape" stroke="#979797" stroke-width="3"/>
        <path d="M70.814 21.772v8.675h-8.41c-.465 0-.555.019-.643.067a.213.213 0 0 0-.092.1c-.057.111-.08.23-.08.736v.94c0 .507.023.626.08.737a.22.22 0 0 0 .092.1c.088.048.178.067.643.067h8.41v8.675c0 .506.022.625.08.736a.22.22 0 0 0 .092.1c.087.048.178.067.642.067h.906c.464 0 .555-.019.642-.067a.213.213 0 0 0 .092-.1c.058-.111.08-.23.08-.736v-8.675h8.41c.465 0 .555-.019.643-.067a.213.213 0 0 0 .092-.1c.057-.111.08-.23.08-.737v-.94c0-.506-.023-.625-.08-.736a.213.213 0 0 0-.092-.1c-.088-.048-.178-.067-.643-.067h-8.41v-8.675c0-.506-.022-.625-.08-.736a.213.213 0 0 0-.092-.1c-.087-.049-.178-.067-.642-.067h-.906c-.464 0-.555.018-.642.067a.213.213 0 0 0-.092.1c-.058.11-.08.23-.08.736z" id="Shape" stroke="#979797" stroke-width="3"/>
        <ellipse id="Oval" fill="#979797" fill-rule="nonzero" cx="137.813" cy="23.981" rx="4.885" ry="4.612"/>
        <ellipse id="Oval" fill="#979797" fill-rule="nonzero" cx="152.913" cy="23.981" rx="4.885" ry="4.612"/>
        <ellipse id="Oval" fill="#979797" fill-rule="nonzero" cx="137.813" cy="37.816" rx="4.885" ry="4.612"/>
        <ellipse id="Oval" fill="#979797" fill-rule="nonzero" cx="152.913" cy="37.816" rx="4.885" ry="4.612"/>
      </g>
      <circle id="Oval" stroke="#979797" stroke-width="3" cx="706" cy="36" r="15"/>
      <rect id="Rectangle-path" stroke="#979797" stroke-width="3" opacity=".86" x="692.5" y="849.5" width="29" height="29" rx="6"/>
      <path d="M737.577 391.222l9.995 19.99a4 4 0 0 1-3.578 5.788h-19.989a4 4 0 0 1-3.578-5.789l9.995-19.989a4 4 0 0 1 7.155 0z" id="Shape" stroke="#979797" stroke-width="3" opacity=".65"/>
      <circle id="Oval" stroke="#979797" stroke-width="3" opacity=".75" cx="578" cy="561" r="15"/>
      <g id="cross-bg" opacity=".51" transform="translate(92 815)" fill="#979797">
        <path d="M4.435 1.607L22.82 19.99a2 2 0 1 1-2.829 2.829L1.607 4.435a2 2 0 1 1 2.828-2.828z" id="Shape"/>
        <path d="M4.435 22.82a2 2 0 1 1-2.828-2.83L19.99 1.607a2 2 0 1 1 2.829 2.828L4.435 22.82z" id="Shape"/>
      </g>
      <g id="cross-bg" transform="translate(243 -1)" fill="#979797">
        <path d="M4.435 1.607L22.82 19.99a2 2 0 1 1-2.829 2.829L1.607 4.435a2 2 0 1 1 2.828-2.828z" id="Shape"/>
        <path d="M4.435 22.82a2 2 0 1 1-2.828-2.83L19.99 1.607a2 2 0 1 1 2.829 2.828L4.435 22.82z" id="Shape"/>
      </g>
      <rect id="Rectangle-path" stroke="#979797" stroke-width="3" opacity=".69" x="64.5" y="400.5" width="29" height="29" rx="6"/>
      <path d="M144.577 499.222l9.995 19.99a4 4 0 0 1-3.578 5.788h-19.989a4 4 0 0 1-3.578-5.789l9.995-19.989a4 4 0 0 1 7.155 0z" id="Shape" stroke="#979797" stroke-width="3"/>
    </g>
  </g>
</svg>
