<svg width="348" height="95" xmlns="http://www.w3.org/2000/svg" xmlns:xlink="http://www.w3.org/1999/xlink">
  <defs>
    <path id="a" d="M15.13 50.299h318.629v22.069H15.13z"/>
    <path id="b" d="M0 8h348v53.333H0z"/>
    <path id="c" d="M7.12 65.931h333.76V88H7.12z"/>
    <path d="M144.066 61.979h-70.91c-3.065 0-4.97 1.893-6.346 4.324L54.58 87.929c-3.786 6.737-12.169 9.046-18.724 5.156-5.558-3.297-8.018-9.99-6.333-16.056l13.583-53.392C46.317 10.071 58.218 0 72.406 0h72.189c14.303 0 26.281 10.235 29.377 23.967l13.505 53.088c1.685 6.066-.775 12.758-6.333 16.055-6.555 3.89-14.938 1.582-18.723-5.155l-11.587-20.503c-1.997-3.533-3.73-5.473-6.768-5.473z" id="d"/>
  </defs>
  <g fill="none" fill-rule="evenodd">
    <use fill="#222528" xlink:href="#a"/>
    <path stroke="#878787" stroke-width="3" d="M16.63 51.799h315.629v19.069H16.63z"/>
    <use fill="#222528" xlink:href="#b"/>
    <path stroke="#878787" stroke-width="3" d="M1.5 9.5h345v50.333H1.5z"/>
    <use fill="#222528" xlink:href="#c"/>
    <path stroke="#878787" stroke-width="3" d="M8.62 67.431h330.76V86.5H8.62z"/>
    <ellipse fill="#878787" cx="326.639" cy="34.667" rx="7.12" ry="7.356"/>
    <use fill="#222528" xlink:href="#d"/>
    <path stroke="#979797" stroke-width="3" d="M144.066 60.479c3.47 0 5.6 1.857 8.073 6.235l11.59 20.506c3.374 6.007 10.823 8.058 16.65 4.6 4.885-2.898 7.185-8.848 5.645-14.396l-13.515-53.127C169.519 11.037 157.988 1.5 144.595 1.5H72.407c-13.279 0-24.739 9.376-27.848 22.507L30.968 77.431c-1.532 5.516.768 11.465 5.653 14.364 5.827 3.458 13.276 1.407 16.653-4.604l12.23-21.627c1.842-3.256 4.27-5.085 7.652-5.085h70.91z"/>
    <path d="M70.814 21.772v8.675h-8.41c-.465 0-.555.019-.643.067a.213.213 0 0 0-.092.1c-.057.111-.08.23-.08.736v.94c0 .507.023.626.08.737.026.05.052.077.092.1.088.048.178.067.643.067h8.41v8.675c0 .506.022.625.08.736.026.05.052.077.092.1.087.048.178.067.642.067h.906c.464 0 .555-.019.642-.067a.213.213 0 0 0 .092-.1c.058-.111.08-.23.08-.736v-8.675h8.41c.465 0 .555-.019.643-.067a.213.213 0 0 0 .092-.1c.057-.111.08-.23.08-.737v-.94c0-.506-.023-.625-.08-.736a.213.213 0 0 0-.092-.1c-.088-.048-.178-.067-.643-.067h-8.41v-8.675c0-.506-.022-.625-.08-.736a.213.213 0 0 0-.092-.1c-.087-.049-.178-.067-.642-.067h-.906c-.464 0-.555.018-.642.067a.213.213 0 0 0-.092.1c-.058.11-.08.23-.08.736z" stroke="#979797" stroke-width="3"/>
    <ellipse fill="#979797" cx="137.813" cy="23.981" rx="4.885" ry="4.612"/>
    <ellipse fill="#979797" cx="152.913" cy="23.981" rx="4.885" ry="4.612"/>
    <ellipse fill="#979797" cx="137.813" cy="37.816" rx="4.885" ry="4.612"/>
    <ellipse fill="#979797" cx="152.913" cy="37.816" rx="4.885" ry="4.612"/>
  </g>
</svg>
