<svg width="690" height="178" xmlns="http://www.w3.org/2000/svg">
  <defs>
    <filter x="-12.3%" y="-77.9%" width="124.7%" height="255.7%" filterUnits="objectBoundingBox" id="a">
      <feGaussianBlur stdDeviation="20.352" in="SourceGraphic"/>
    </filter>
    <filter x="-64.4%" y="-156.4%" width="228.7%" height="412.8%" filterUnits="objectBoundingBox" id="b">
      <feGaussianBlur stdDeviation="20.352" in="SourceGraphic"/>
    </filter>
  </defs>
  <g fill="none" fill-rule="evenodd">
    <path d="M92.232 71.292h16.74L74.304 147h-3.672l-12.636-27.756L45.252 147H41.58L7.02 71.292h16.74l20.196 42.552 6.696-12.744-14.58-29.808h16.74l19.656 41.904 19.764-41.904zm35.856 0h4.428L168.264 147h-16.74l-21.6-46.008L106.488 147H89.532l38.556-75.708zm77.328 15.012h-14.472v60.588h-15.12V71.184h29.592c12.528 0 22.68 10.26 22.68 22.788 0 9.18-5.4 17.064-13.284 20.628l15.012 32.4h-16.092l-14.148-30.348v-15.12h5.832a7.513 7.513 0 0 0 7.56-7.56c0-4.212-3.348-7.668-7.56-7.668zm108.972-15.012h16.74L296.46 147h-3.672l-12.636-27.756L267.408 147h-3.672l-34.56-75.708h16.74l20.196 42.552 6.696-12.744-14.58-29.808h16.74l19.656 41.904 19.764-41.904zm25.38 75.6v-75.6h15.12v75.6h-15.12zm89.316-68.472l-9.72 11.232c-14.688-9.504-36.828-.648-36.828 19.656 0 21.276 23.436 29.808 37.692 19.008l9.72 11.124c-6.804 5.616-15.552 9.072-25.056 9.072-21.6 0-39.204-17.604-39.204-39.204s17.604-39.204 39.204-39.204c9.072 0 17.496 3.132 24.192 8.316zm55.188 68.472l-19.332-34.56-5.832 5.94v28.62h-15.12v-75.6h15.12V95.7l22.14-24.408h20.412l-26.46 29.592 27.108 46.008h-18.036z" fill="#162160" opacity=".775" filter="url(#a)" transform="translate(37 -21)"/>
    <path d="M512.43 149v-7.074h7.074V149h-7.074zm35.532-23.328h15.714v3.834c0 11.88-8.64 20.142-18.792 20.142h-.054c-10.854-.108-19.494-8.802-19.386-19.656.108-10.746 8.856-19.386 19.602-19.386h.162a19.493 19.493 0 0 1 12.042 4.32l-5.454 5.346c-1.944-1.35-4.212-2.052-6.642-2.106h-.108a11.93 11.93 0 0 0-8.478 3.51 11.765 11.765 0 0 0-3.564 8.424 11.953 11.953 0 0 0 3.402 8.532c2.268 2.322 5.292 3.618 8.478 3.618 5.508 0 10.206-3.942 11.61-9.018h-8.532v-7.56zm43.632 0h15.714v3.834c0 11.88-8.64 20.142-18.792 20.142h-.054c-10.854-.108-19.494-8.802-19.386-19.656.108-10.746 8.856-19.386 19.602-19.386h.162a19.493 19.493 0 0 1 12.042 4.32l-5.454 5.346c-1.944-1.35-4.212-2.052-6.642-2.106h-.108a11.93 11.93 0 0 0-8.478 3.51 11.765 11.765 0 0 0-3.564 8.424 11.953 11.953 0 0 0 3.402 8.532c2.268 2.322 5.292 3.618 8.478 3.618 5.508 0 10.206-3.942 11.61-9.018h-8.532v-7.56z" fill="#162160" opacity=".775" filter="url(#b)" transform="translate(37 -21)"/>
    <path d="M129.232 11.292h16.74L111.304 87h-3.672L94.996 59.244 82.252 87H78.58L44.02 11.292h16.74l20.196 42.552L87.652 41.1l-14.58-29.808h16.74l19.656 41.904 19.764-41.904zm35.856 0h4.428L205.264 87h-16.74l-21.6-46.008L143.488 87h-16.956l38.556-75.708zm77.328 15.012h-14.472v60.588h-15.12V11.184h29.592c12.528 0 22.68 10.26 22.68 22.788 0 9.18-5.4 17.064-13.284 20.628L266.824 87h-16.092l-14.148-30.348v-15.12h5.832a7.513 7.513 0 0 0 7.56-7.56c0-4.212-3.348-7.668-7.56-7.668zm108.972-15.012h16.74L333.46 87h-3.672l-12.636-27.756L304.408 87h-3.672l-34.56-75.708h16.74l20.196 42.552 6.696-12.744-14.58-29.808h16.74l19.656 41.904 19.764-41.904zm25.38 75.6v-75.6h15.12v75.6h-15.12zm89.316-68.472l-9.72 11.232c-14.688-9.504-36.828-.648-36.828 19.656 0 21.276 23.436 29.808 37.692 19.008l9.72 11.124c-6.804 5.616-15.552 9.072-25.056 9.072-21.6 0-39.204-17.604-39.204-39.204s17.604-39.204 39.204-39.204c9.072 0 17.496 3.132 24.192 8.316zm55.188 68.472l-19.332-34.56-5.832 5.94v28.62h-15.12v-75.6h15.12V35.7l22.14-24.408h20.412L512.2 40.884l27.108 46.008h-18.036zM549.43 49v-7.074h7.074V49h-7.074zm35.532-23.328h15.714v3.834c0 11.88-8.64 20.142-18.792 20.142h-.054c-10.854-.108-19.494-8.802-19.386-19.656.108-10.746 8.856-19.386 19.602-19.386h.162a19.493 19.493 0 0 1 12.042 4.32l-5.454 5.346c-1.944-1.35-4.212-2.052-6.642-2.106h-.108a11.93 11.93 0 0 0-8.478 3.51 11.765 11.765 0 0 0-3.564 8.424 11.953 11.953 0 0 0 3.402 8.532c2.268 2.322 5.292 3.618 8.478 3.618 5.508 0 10.206-3.942 11.61-9.018h-8.532v-7.56zm43.632 0h15.714v3.834c0 11.88-8.64 20.142-18.792 20.142h-.054c-10.854-.108-19.494-8.802-19.386-19.656.108-10.746 8.856-19.386 19.602-19.386h.162a19.493 19.493 0 0 1 12.042 4.32l-5.454 5.346c-1.944-1.35-4.212-2.052-6.642-2.106h-.108a11.93 11.93 0 0 0-8.478 3.51 11.765 11.765 0 0 0-3.564 8.424 11.953 11.953 0 0 0 3.402 8.532c2.268 2.322 5.292 3.618 8.478 3.618 5.508 0 10.206-3.942 11.61-9.018h-8.532v-7.56z" fill="#3D5AFE"/>
  </g>
</svg>
