<svg width="163" height="207" xmlns="http://www.w3.org/2000/svg" xmlns:xlink="http://www.w3.org/1999/xlink">
  <defs>
    <path d="M152.909 36.959a10 10 0 0 0-4.84-12.46c-21.31-10.778-43.507-16.167-66.59-16.167-23.048 0-44.939 5.372-65.671 16.118a10 10 0 0 0-4.752 12.415l61.59 162.897c1.953 5.166 7.725 7.77 12.89 5.817a10 10 0 0 0 5.818-5.817l24.71-65.356a1 1 0 0 1 1.936.353V151a6 6 0 0 0 12 0v-36c0 5.333 2.677 8.698 7.24 8.698 4.564 0 6.76-3.737 6.746-8.698l.013-52.47a11 11 0 0 1 .711-3.887l8.199-21.684z" id="a"/>
    <path d="M81.912.634c30.067 0 55.281 6.042 75.643 18.125 4.75 2.818 6.315 8.953 3.497 13.703a10 10 0 0 1-.227.364l-3.478 5.327a4 4 0 0 1-5.562 1.145c-17.681-11.746-41.025-17.62-70.033-17.62-29.032 0-52.366 5.884-70.002 17.65a4 4 0 0 1-5.532-1.085l-3.65-5.39c-3.096-4.572-1.9-10.79 2.674-13.887a10 10 0 0 1 .603-.377C26.553 6.619 51.909.634 81.912.634z" id="b"/>
  </defs>
  <g fill="none" fill-rule="evenodd">
    <use fill="#222528" xlink:href="#a"/>
    <path stroke="#878787" stroke-width="3" d="M151.506 36.428a8.5 8.5 0 0 0-4.115-10.59C126.29 15.163 104.325 9.831 81.48 9.831c-22.807 0-44.461 5.314-64.98 15.95a8.5 8.5 0 0 0-4.04 10.552l61.59 162.898a8.5 8.5 0 0 0 15.902 0l24.71-65.357a2.5 2.5 0 0 1 4.839.884V151a4.5 4.5 0 0 0 9 0v-36h3c0 4.617 2.122 7.198 5.74 7.198 3.363 0 5.259-2.637 5.246-7.198l.013-52.47c0-1.51.274-3.006.808-4.418l8.199-21.684z"/>
    <path d="M133 115a3 3 0 0 0-6 0h6z" fill="#878787"/>
    <use fill="#222528" xlink:href="#b"/>
    <path stroke="#878787" stroke-width="3" d="M81.912 2.134c-29.753 0-54.851 5.924-75.317 17.753a8.5 8.5 0 0 0-2.784 12.126L7.46 37.4a2.5 2.5 0 0 0 3.457.678c17.906-11.945 41.526-17.9 70.834-17.9 29.283 0 52.913 5.945 70.863 17.87a2.5 2.5 0 0 0 3.476-.716l3.478-5.327a8.5 8.5 0 0 0-2.78-11.957C136.676 8.113 111.725 2.134 81.913 2.134zM30.609 84.338A17.67 17.67 0 0 0 33 84.5c9.665 0 17.5-7.835 17.5-17.5S42.665 49.5 33 49.5a17.456 17.456 0 0 0-13.263 6.083l10.872 28.755zM112.895 138.546A24.385 24.385 0 0 0 98 133.5c-13.531 0-24.5 10.969-24.5 24.5 0 12.936 10.04 23.568 22.799 24.442l16.596-43.896z"/>
    <circle stroke="#878787" stroke-width="3" cx="97" cy="107" r="7.5"/>
    <circle stroke="#878787" stroke-width="3" cx="101.5" cy="48.5" r="12"/>
  </g>
</svg>
