<svg width="269" height="263" xmlns="http://www.w3.org/2000/svg" xmlns:xlink="http://www.w3.org/1999/xlink">
  <defs>
    <path d="M41.476 137.045c.115 52.853 36.782 99.258 92 125.673 55.218-26.415 91.885-72.82 92-125.673h.25V.4l-92.125 43.816L41.476.4v136.644z" id="a"/>
    <path id="b" d="M247.1 202.85h21.827L247.788 249h-32.096l2.82-5.85H50.488l2.82 5.85H21.212L.073 202.85H21.28L18.6 197h231.18l-2.68 5.85z"/>
    <path d="M127.958 172.048c-9.021 0-16.335-7.213-16.335-16.111s7.314-16.11 16.335-16.11c9.022 0 16.336 7.212 16.336 16.11s-7.314 16.111-16.336 16.111zm40.537 0c-9.022 0-16.335-7.213-16.335-16.111s7.313-16.11 16.335-16.11c9.022 0 16.335 7.212 16.335 16.11s-7.313 16.111-16.335 16.111z" id="c"/>
    <path d="M120.444 133.868c-9.021 0-16.335-7.213-16.335-16.11 0-8.898 7.314-16.112 16.335-16.112 9.022 0 16.335 7.214 16.335 16.111 0 8.898-7.313 16.111-16.335 16.111zm.026-40.048c-9.022 0-16.336-7.213-16.336-16.11 0-8.898 7.314-16.111 16.336-16.111 9.021 0 16.335 7.213 16.335 16.11 0 8.898-7.314 16.111-16.335 16.111z" id="d"/>
  </defs>
  <g fill="none" fill-rule="evenodd">
    <use fill="#222528" xlink:href="#a"/>
    <path stroke="#9B9B9B" stroke-width="3" d="M42.976 136.918v.123c.11 50.71 34.615 97.05 90.5 124.013 55.885-26.962 90.39-73.302 90.5-124.013l.003-1.496h.248V2.775L133.6 45.878 42.976 2.775v134.143z"/>
    <path d="M88.785 38.114l-2.371-1.11-31.346 31.347v3.48l33.717-33.717zm97.69 169.806c10.283-12.786 17.387-27.211 21.418-43.363l-80.427 80.427a210.194 210.194 0 0 0 6.01 3.018c13.186-6.361 24.64-13.522 34.41-21.494l18.589-18.588zm25.408-77.157v-.248l.082-35.495L89.284 217.7c5.76 5.741 12.27 11.112 19.543 16.118l103.056-103.055zm.193-84.832l.054-23.592L133.6 59.085l-28.33-13.256-50.203 50.203v34.483c.048 22.24 4.465 41.86 13.392 59.032L212.076 45.93z" stroke="#979797" stroke-width="3"/>
    <use fill="#222528" xlink:href="#b"/>
    <path stroke="#3D5AFE" stroke-width="3" d="M247.443 198.5H20.937l2.68 5.85H2.41l19.765 43.15H50.92l-2.82-5.85h172.8l-2.82 5.85h28.745l19.765-43.15h-21.827l2.68-5.85z"/>
    <g transform="rotate(45 148.227 155.937)">
      <use fill="#222528" xlink:href="#c"/>
      <path stroke="#3D5AFE" stroke-width="3" d="M127.958 170.548c8.198 0 14.836-6.546 14.836-14.611 0-8.065-6.638-14.61-14.836-14.61-8.197 0-14.835 6.545-14.835 14.61s6.638 14.611 14.835 14.611zm40.537 0c8.198 0 14.835-6.546 14.835-14.611 0-8.065-6.637-14.61-14.835-14.61s-14.835 6.545-14.835 14.61 6.637 14.611 14.835 14.611z"/>
    </g>
    <g transform="rotate(45 120.457 97.733)">
      <use fill="#222528" xlink:href="#d"/>
      <path stroke="#FDD835" stroke-width="3" d="M120.444 132.368c8.198 0 14.835-6.546 14.835-14.61 0-8.065-6.637-14.612-14.835-14.612s-14.835 6.547-14.835 14.611c0 8.065 6.637 14.611 14.835 14.611zm.026-40.048c8.197 0 14.835-6.546 14.835-14.61 0-8.065-6.638-14.611-14.835-14.611-8.198 0-14.836 6.546-14.836 14.61 0 8.065 6.638 14.611 14.836 14.611z"/>
    </g>
  </g>
</svg>
